<svg width="40" height="32" viewBox="0 0 40 32" fill="none" xmlns="http://www.w3.org/2000/svg">
<path d="M12 28C11.45 28 10.9793 27.8043 10.588 27.413C10.196 27.021 10 26.55 10 26C10 25.45 10.196 24.979 10.588 24.587C10.9793 24.1957 11.45 24 12 24H28C28.55 24 29.021 24.1957 29.413 24.587C29.8043 24.979 30 25.45 30 26C30 26.55 29.8043 27.021 29.413 27.413C29.021 27.8043 28.55 28 28 28H12ZM15.15 21C14.7 21 14.3667 20.85 14.15 20.55C13.9333 20.25 13.9083 19.8833 14.075 19.45L18.325 8.15C18.4417 7.83333 18.6667 7.56233 19 7.337C19.3333 7.11233 19.675 7 20.025 7C20.3583 7 20.6873 7.11233 21.012 7.337C21.3373 7.56233 21.5583 7.83333 21.675 8.15L25.925 19.45C26.0917 19.8833 26.0667 20.25 25.85 20.55C25.6333 20.85 25.2917 21 24.825 21C24.625 21 24.4293 20.9333 24.238 20.8C24.046 20.6667 23.9167 20.5083 23.85 20.325L22.85 17.4H17.2L16.15 20.325C16.0833 20.5083 15.9543 20.6667 15.763 20.8C15.571 20.9333 15.3667 21 15.15 21ZM17.9 15.4H22.1L20.05 9.6H19.95L17.9 15.4Z" fill="#777E91"/>
</svg>
