<svg width="32" height="32" viewBox="0 0 32 32" fill="none" xmlns="http://www.w3.org/2000/svg">
<path d="M13 22C17.9706 22 22 17.9706 22 13C22 12.8513 21.9964 12.7034 21.9893 12.5565C21.9748 12.2589 22.2055 12 22.5034 12H24C25.1046 12 26 12.8954 26 14V24C26 25.1046 25.1046 26 24 26H14C12.8954 26 12 25.1046 12 24V22.5034C12 22.2055 12.2589 21.9748 12.5565 21.9893C12.7034 21.9964 12.8513 22 13 22Z" fill="#777E91"/>
<path d="M20 13C20 16.866 16.866 20 13 20C9.13401 20 6 16.866 6 13C6 9.13401 9.13401 6 13 6C16.866 6 20 9.13401 20 13Z" fill="#777E91"/>
</svg>
